# xmcd
#
# Track frame offsets:
#	150
#	15347
#	31228
#	50267
#	71681
#	87807
#	101713
#	116691
#	130388
#	148776
#	173952
#	196900
#	215323
#	225940
#	243160
#	255299
#	270992
#	285872
#	297423
#	318508
#
# Disc length: 4526 seconds
#
# Revision: 0
# Processed by: cddbd v1.5.1PL0 Copyright (c) Steve Scherf et al.
# Submitted via: dBpowerAMP V4.0
#
DISCID=0f11ac14
DTITLE=Louis Armstrong - The very best of (2000) CD 2/2
DYEAR=2000
DGENRE=Blues
TTITLE0=When the Saints go marchin' in
TTITLE1=Let's fall in love
TTITLE2=Gee baby ain't goof to you ?
TTITLE3=Don't fence me in
TTITLE4=Stars fell on Alabama
TTITLE5=Georgia bo bo
TTITLE6=She's the daughter of a planter from Havana
TTITLE7=(I'll be glad when you're dead) You rascal you
TTITLE8=Just one of those things
TTITLE9=Baby, it's cold outside
TTITLE10=Tenderly
TTITLE11=When you're smiling (the whole world smiles with you)
TTITLE12=Pretty little missy
TTITLE13=Lazy river
TTITLE14=Oh Bess, oh where's my Bess
TTITLE15=Blueberry hill
TTITLE16=Dream a little dream of me
TTITLE17=Gone fishin'
TTITLE18=They can't take that away from me
TTITLE19=Ain't misbehavin'
EXTD=
EXTT0=
EXTT1=
EXTT2=
EXTT3=
EXTT4=
EXTT5=
EXTT6=
EXTT7=
EXTT8=
EXTT9=
EXTT10=
EXTT11=
EXTT12=
EXTT13=
EXTT14=
EXTT15=
EXTT16=
EXTT17=
EXTT18=
EXTT19=
PLAYORDER=
